<svg width="69" height="45" viewBox="0 0 69 45" fill="none" xmlns="http://www.w3.org/2000/svg">
<g clip-path="url(#clip0_6_14)">
<path d="M34.1871 2.77777C33.3218 2.77777 32.4671 2.8993 31.6551 3.13367L1.68787 11.9271C0.672936 12.2309 -0.000125584 13.0121 -0.000125584 13.8889C-0.000125584 14.7656 0.672936 15.5469 1.68787 15.8507L7.87362 17.6649C6.12153 19.9045 5.12796 22.5521 5.12796 25.3385V27.7778C5.12796 30.243 3.97414 32.7865 2.74554 34.7917C2.05111 35.9201 1.26053 37.0312 0.341747 38.0555C-0.00012558 38.4288 -0.0962772 38.9149 0.096026 39.3576C0.288329 39.8003 0.737037 40.1302 1.29258 40.243L8.13003 41.6319C8.57874 41.7274 9.05949 41.658 9.45479 41.4583C9.85008 41.2587 10.1278 40.9288 10.2133 40.5556C11.1321 36.8403 10.6727 33.5069 9.98896 31.1198C9.64709 29.8871 9.1877 28.6285 8.54669 27.474V25.3385C8.54669 22.717 9.6364 20.243 11.5274 18.2639C12.9056 16.9184 14.6897 15.8333 16.7837 15.1649L33.5568 9.80902C34.4328 9.53124 35.4264 9.87847 35.7683 10.5903C36.1102 11.3021 35.6828 12.1094 34.8068 12.3871L18.0336 17.743C16.7089 18.1684 15.5444 18.8194 14.5936 19.618L31.6444 24.618C32.4564 24.8524 33.3111 24.974 34.1764 24.974C35.0418 24.974 35.8965 24.8524 36.7084 24.618L66.6864 15.8507C67.7013 15.5555 68.3744 14.7656 68.3744 13.8889C68.3744 13.0121 67.7013 12.2309 66.6864 11.9271L36.7191 3.13367C35.9072 2.8993 35.0525 2.77777 34.1871 2.77777ZM13.6748 35.4167C13.6748 38.4809 22.8626 41.6667 34.1871 41.6667C45.5117 41.6667 54.6995 38.4809 54.6995 35.4167L53.0649 22.7951L37.8729 27.2569C36.6871 27.6042 35.4371 27.7778 34.1871 27.7778C32.9372 27.7778 31.6765 27.6042 30.5013 27.2569L15.3094 22.7951L13.6748 35.4167Z" fill="#00B6EF"/>
</g>
<defs>
<clipPath id="clip0_6_14">
<rect width="68.3745" height="44.4444" fill="white"/>
</clipPath>
</defs>
</svg>
