<svg width="152" height="167" viewBox="0 0 152 167" fill="none" xmlns="http://www.w3.org/2000/svg">
<path d="M76 83.5C87.518 83.5 98.5642 79.1014 106.709 71.2717C114.853 63.4421 119.429 52.8228 119.429 41.75C119.429 30.6772 114.853 20.0579 106.709 12.2283C98.5642 4.39865 87.518 0 76 0C64.482 0 53.4358 4.39865 45.2914 12.2283C37.1469 20.0579 32.5714 30.6772 32.5714 41.75C32.5714 52.8228 37.1469 63.4421 45.2914 71.2717C53.4358 79.1014 64.482 83.5 76 83.5ZM60.4946 99.1562C27.075 99.1562 0 125.185 0 157.313C0 162.662 4.5125 167 10.0768 167H141.923C147.487 167 152 162.662 152 157.313C152 125.185 124.925 99.1562 91.5054 99.1562H60.4946Z" fill="#D4F3FD"/>
</svg>
