<svg width="113" height="91" viewBox="0 0 113 91" fill="none" xmlns="http://www.w3.org/2000/svg">
<g clip-path="url(#clip0_6_17)">
<path d="M56.5 5.6875C55.0699 5.6875 53.6574 5.93633 52.3155 6.41621L2.78972 24.4207C1.11238 25.0428 3.21509e-05 26.6424 3.21509e-05 28.4375C3.21509e-05 30.2326 1.11238 31.8322 2.78972 32.4543L13.0127 36.1689C10.1171 40.7545 8.47503 46.1754 8.47503 51.8807V56.875C8.47503 61.9227 6.56816 67.1303 4.53769 71.2359C3.39003 73.5465 2.08347 75.8215 0.565032 77.9188C3.21567e-05 78.683 -0.158874 79.6783 0.158938 80.5848C0.476751 81.4912 1.21831 82.1666 2.13644 82.3977L13.4364 85.2414C14.178 85.4369 14.9725 85.2947 15.6258 84.8859C16.2791 84.4772 16.7382 83.8018 16.8794 83.0375C18.3978 75.4305 17.6386 68.6055 16.5086 63.7178C15.9436 61.194 15.1844 58.6168 14.125 56.2529V51.8807C14.125 46.5131 15.926 41.4477 19.0511 37.3953C21.3288 34.6404 24.2774 32.4188 27.738 31.0502L55.4583 20.084C56.9061 19.5152 58.5482 20.2262 59.1132 21.6836C59.6782 23.141 58.9719 24.7939 57.5241 25.3627L29.8038 36.3289C27.6144 37.1998 25.6899 38.5328 24.1185 40.168L52.2978 50.4055C53.6397 50.8854 55.0522 51.1342 56.4824 51.1342C57.9125 51.1342 59.325 50.8854 60.6669 50.4055L110.21 32.4543C111.888 31.85 113 30.2326 113 28.4375C113 26.6424 111.888 25.0428 110.21 24.4207L60.6846 6.41621C59.3427 5.93633 57.9302 5.6875 56.5 5.6875ZM22.6 72.5156C22.6 78.7897 37.7844 85.3125 56.5 85.3125C75.2157 85.3125 90.4 78.7897 90.4 72.5156L87.6986 46.673L62.5914 55.8086C60.6316 56.5195 58.5658 56.875 56.5 56.875C54.4342 56.875 52.3508 56.5195 50.4086 55.8086L25.3014 46.673L22.6 72.5156Z" fill="#00B6EF"/>
</g>
<defs>
<clipPath id="clip0_6_17">
<rect width="113" height="91" fill="white"/>
</clipPath>
</defs>
</svg>
