<svg width="21" height="23" viewBox="0 0 21 23" fill="none" xmlns="http://www.w3.org/2000/svg">
<path d="M10.5 11.5C12.0913 11.5 13.6174 10.8942 14.7426 9.81586C15.8679 8.73753 16.5 7.27499 16.5 5.75C16.5 4.22501 15.8679 2.76247 14.7426 1.68414C13.6174 0.605802 12.0913 0 10.5 0C8.9087 0 7.38258 0.605802 6.25736 1.68414C5.13214 2.76247 4.5 4.22501 4.5 5.75C4.5 7.27499 5.13214 8.73753 6.25736 9.81586C7.38258 10.8942 8.9087 11.5 10.5 11.5ZM8.35781 13.6562C3.74063 13.6562 0 17.241 0 21.6658C0 22.4025 0.623438 23 1.39219 23H19.6078C20.3766 23 21 22.4025 21 21.6658C21 17.241 17.2594 13.6562 12.6422 13.6562H8.35781Z" fill="#75D8F6"/>
</svg>
